<svg width="436" height="105" viewBox="0 0 436 105" fill="none" xmlns="http://www.w3.org/2000/svg">
<path d="M424.883 58.416H353.331C350.107 58.416 348.547 56.856 348.547 53.528V11.928C348.547 8.60004 350.107 7.14404 353.331 7.14404H424.883C428.107 7.14404 429.459 8.60004 429.459 11.928V53.528C429.459 56.856 428.107 58.416 424.883 58.416ZM419.371 16.608H358.739V48.952H419.371V16.608ZM394.203 87.12H431.539C434.347 87.12 435.595 88.576 435.595 91.904C435.595 95.232 434.347 96.688 431.539 96.688H346.675C343.867 96.688 342.515 95.232 342.515 91.904C342.515 88.576 343.867 87.12 346.675 87.12H383.907V68.4C383.907 65.384 385.571 63.928 389.107 63.928C392.643 63.928 394.203 65.384 394.203 68.4V87.12Z" fill="#5E5CE6"/>
<path d="M326.261 3.91992C329.693 3.91992 331.461 5.37592 331.461 8.49592V94.8159C331.461 98.0399 329.693 99.3919 326.261 99.3919C322.725 99.3919 320.957 98.0399 320.957 94.8159V71.5199H302.757V72.6639C302.757 91.1759 289.133 97.9359 274.885 97.9359C260.637 97.9359 247.013 91.1759 247.013 72.6639V30.3359C247.013 11.8239 260.637 5.06392 274.885 5.06392C288.509 5.06392 301.509 11.1999 302.653 27.9439H320.957V8.49592C320.957 5.37592 322.725 3.91992 326.261 3.91992ZM292.357 71.9359V31.0639C292.357 18.6879 283.829 14.5279 274.885 14.5279C265.837 14.5279 257.413 18.6879 257.413 31.0639V71.9359C257.413 84.3119 265.837 88.4719 274.885 88.4719C283.829 88.4719 292.357 84.3119 292.357 71.9359ZM302.757 37.8239V61.7439H320.957V37.8239H302.757Z" fill="#5E5CE6"/>
<path d="M227.64 58.416H156.088C152.864 58.416 151.304 56.856 151.304 53.528V11.928C151.304 8.60004 152.864 7.14404 156.088 7.14404H227.64C230.864 7.14404 232.216 8.60004 232.216 11.928V53.528C232.216 56.856 230.864 58.416 227.64 58.416ZM222.128 16.608H161.496V48.952H222.128V16.608ZM196.96 87.12H234.296C237.104 87.12 238.352 88.576 238.352 91.904C238.352 95.232 237.104 96.688 234.296 96.688H149.432C146.624 96.688 145.272 95.232 145.272 91.904C145.272 88.576 146.624 87.12 149.432 87.12H186.664V68.4C186.664 65.384 188.328 63.928 191.864 63.928C195.4 63.928 196.96 65.384 196.96 68.4V87.12Z" fill="#5E5CE6"/>
<g clip-path="url(#clip0_87_8)">
<path d="M25.4486 26.1325C30.2373 26.1325 34.1193 22.2966 34.1193 17.5648C34.1193 12.833 30.2373 8.99707 25.4486 8.99707C20.6598 8.99707 16.7778 12.833 16.7778 17.5648C16.7778 22.2966 20.6598 26.1325 25.4486 26.1325Z" fill="url(#paint0_linear_87_8)"/>
<path d="M93.1911 97.2811C103.607 86.9892 103.607 70.3028 93.1911 60.0109C82.7755 49.719 65.8885 49.719 55.4729 60.0109C45.0573 70.3028 45.0573 86.9892 55.4729 97.2811C65.8885 107.573 82.7755 107.573 93.1911 97.2811Z" fill="url(#paint1_linear_87_8)"/>
<path d="M49.8992 20.1278C65.7808 20.1278 78.77 32.5802 79.3946 48.1256C87.1962 49.3802 94.0201 53.4796 98.7595 59.3166C99.4384 56.0827 99.7983 52.7281 99.7983 49.2997C99.7915 22.1205 77.412 0 49.8992 0C44.2772 0 39.7144 4.50863 39.7144 10.0639C39.7144 15.6192 44.2772 20.1278 49.8992 20.1278Z" fill="url(#paint2_linear_87_8)"/>
<path d="M43.0277 78.6459C43.0277 78.3239 43.0413 78.0018 43.0549 77.6798C30.0658 74.6204 20.3697 63.0603 20.3697 49.3063C20.3697 41.6242 23.3641 34.3983 28.7892 28.9101C27.4992 29.4066 26.1072 29.6884 24.6406 29.6884C18.3124 29.6884 13.1792 24.6162 13.1792 18.3632C13.1792 17.3836 13.315 16.4443 13.5527 15.5386C4.80726 24.7168 0 36.6392 0 49.3063C0 76.4922 22.3864 98.6127 49.8991 98.6127C50.0756 98.6127 50.2454 98.5993 50.4219 98.5993C45.8184 93.2117 43.0345 86.2542 43.0345 78.6526L43.0277 78.6459Z" fill="url(#paint3_linear_87_8)"/>
</g>
<defs>
<linearGradient id="paint0_linear_87_8" x1="25.4486" y1="8.99707" x2="25.4486" y2="26.1325" gradientUnits="userSpaceOnUse">
<stop stop-color="#5E5CE6"/>
<stop offset="1" stop-color="#5E5CE6" stop-opacity="0.5"/>
</linearGradient>
<linearGradient id="paint1_linear_87_8" x1="55.4729" y1="60.0109" x2="92.7404" y2="97.7264" gradientUnits="userSpaceOnUse">
<stop stop-color="#5E5CE6"/>
<stop offset="1" stop-color="#5E5CE6" stop-opacity="0.5"/>
</linearGradient>
<linearGradient id="paint2_linear_87_8" x1="69.7563" y1="0" x2="69.7563" y2="59.3166" gradientUnits="userSpaceOnUse">
<stop stop-color="#5E5CE6"/>
<stop offset="1" stop-color="#5E5CE6" stop-opacity="0.5"/>
</linearGradient>
<linearGradient id="paint3_linear_87_8" x1="25.211" y1="15.5386" x2="25.211" y2="98.6127" gradientUnits="userSpaceOnUse">
<stop stop-color="#5E5CE6"/>
<stop offset="1" stop-color="#5E5CE6" stop-opacity="0.5"/>
</linearGradient>
<clipPath id="clip0_87_8">
<rect width="101" height="105" fill="white"/>
</clipPath>
</defs>
</svg>
