<svg width="40" height="40" viewBox="0 0 40 40" fill="none" xmlns="http://www.w3.org/2000/svg">
<g id="add_photo_alternate">
<mask id="mask0_19_1644" style="mask-type:alpha" maskUnits="userSpaceOnUse" x="0" y="0" width="40" height="40">
<rect id="Bounding box" width="40" height="40" fill="#D9D9D9"/>
</mask>
<g mask="url(#mask0_19_1644)">
<path id="add_photo_alternate_2" d="M8.44046 34.1666C7.72407 34.1666 7.11046 33.9112 6.59962 33.4004C6.08879 32.8896 5.83337 32.276 5.83337 31.5596V8.4404C5.83337 7.72401 6.08879 7.1104 6.59962 6.59956C7.11046 6.08873 7.72407 5.83331 8.44046 5.83331H20.8121C21.1018 5.83331 21.3488 5.93415 21.553 6.13581C21.7568 6.33776 21.8588 6.58776 21.8588 6.88581C21.8588 7.18415 21.7568 7.43234 21.553 7.6304C21.3488 7.82845 21.1018 7.92748 20.8121 7.92748H8.44046C8.29074 7.92748 8.16782 7.97553 8.07171 8.07165C7.9756 8.16776 7.92754 8.29067 7.92754 8.4404V31.5596C7.92754 31.7093 7.9756 31.8322 8.07171 31.9283C8.16782 32.0244 8.29074 32.0725 8.44046 32.0725H31.5596C31.7093 32.0725 31.8323 32.0244 31.9284 31.9283C32.0245 31.8322 32.0725 31.7093 32.0725 31.5596V19.1879C32.0725 18.8982 32.1735 18.6512 32.3755 18.4471C32.5771 18.2432 32.8271 18.1412 33.1255 18.1412C33.4235 18.1412 33.6716 18.2432 33.8696 18.4471C34.0677 18.6512 34.1667 18.8982 34.1667 19.1879V31.5596C34.1667 32.276 33.9113 32.8896 33.4005 33.4004C32.8896 33.9112 32.276 34.1666 31.5596 34.1666H8.44046ZM10.6413 27.7754H29.3588L23.6655 20.1879L18.5246 26.8196L14.9038 22.2371L10.6413 27.7754ZM28.5984 11.4187H26.1538C25.8571 11.4187 25.6085 11.3179 25.408 11.1162C25.2071 10.9146 25.1067 10.6646 25.1067 10.3662C25.1067 10.0679 25.2071 9.8197 25.408 9.62165C25.6085 9.42387 25.8571 9.32498 26.1538 9.32498H28.5984V6.8804C28.5984 6.58373 28.6992 6.33512 28.9009 6.13456C29.1025 5.93373 29.3525 5.83331 29.6509 5.83331C29.9492 5.83331 30.1974 5.93373 30.3955 6.13456C30.5932 6.33512 30.6921 6.58373 30.6921 6.8804V9.32498H33.1196C33.4163 9.32498 33.6649 9.42581 33.8655 9.62748C34.0663 9.82915 34.1667 10.0791 34.1667 10.3775C34.1667 10.6758 34.0663 10.9239 33.8655 11.1216C33.6649 11.3197 33.4163 11.4187 33.1196 11.4187H30.6921V13.8462C30.6921 14.1429 30.5913 14.3915 30.3896 14.5921C30.188 14.7929 29.938 14.8933 29.6396 14.8933C29.3413 14.8933 29.0932 14.7929 28.8955 14.5921C28.6974 14.3915 28.5984 14.1429 28.5984 13.8462V11.4187Z" fill="#3C3C43" fill-opacity="0.6"/>
</g>
</g>
</svg>
